<svg xmlns="http://www.w3.org/2000/svg" width="43" height="19" viewBox="0 0 43 19" fill="none"><path d="M2.92 18V11.136H9.832V8.472H2.92V3.696H10.624V0.983999H0.04V18H2.92ZM19.7596 16.704C19.7596 17.184 19.8076 17.736 19.8556 18H22.5196C22.4716 17.568 22.3996 16.824 22.3996 15.864V6.312H19.6156V13.224C19.6156 14.76 18.7756 15.84 17.1676 15.84C15.4876 15.84 14.8156 14.616 14.8156 13.176V6.312H12.0316V13.68C12.0316 16.272 13.6636 18.336 16.4476 18.336C17.8156 18.336 19.1836 17.76 19.7596 16.704ZM28.7871 18V0.623999H26.0031V18H28.7871ZM35.1621 18V0.623999H32.3781V18H35.1621ZM42.5211 0.983999H39.1371L39.8331 12.96H41.8491L42.5211 0.983999ZM39.0891 16.416C39.0891 17.376 39.8571 18.168 40.8171 18.168C41.8011 18.168 42.5931 17.376 42.5931 16.416C42.5931 15.456 41.8011 14.64 40.8171 14.64C39.8571 14.64 39.0891 15.456 39.0891 16.416Z" fill="#F82F2F"></path></svg>