<svg xmlns="http://www.w3.org/2000/svg" width="69" height="69" viewBox="0 0 69 69" fill="none"><circle cx="34.5" cy="34.5" r="34.5" fill="#1D192E" fill-opacity="0.1"></circle><path fill-rule="evenodd" clip-rule="evenodd" d="M40.9325 21.0369L40.934 22.1301C44.9512 22.445 47.6048 25.1823 47.6091 29.3802L47.625 41.6678C47.6307 46.2447 44.7553 49.0608 40.1464 49.0681L28.8882 49.0827C24.308 49.0885 21.3966 46.2054 21.3908 41.6154L21.375 29.4721C21.3693 25.2465 23.9293 22.5164 27.9465 22.1476L27.9451 21.0544C27.9436 20.4131 28.4188 19.9306 29.0523 19.9306C29.6858 19.9291 30.161 20.4101 30.1624 21.0515L30.1639 22.0718L38.7166 22.0602L38.7152 21.0398C38.7137 20.3985 39.1889 19.9175 39.8224 19.916C40.4415 19.9146 40.9311 20.3956 40.9325 21.0369ZM23.5938 29.9226L45.3932 29.8934V29.3833C45.3313 26.2494 43.759 24.6053 40.9369 24.3604L40.9383 25.4827C40.9383 26.1095 40.4502 26.6065 39.8311 26.6065C39.1975 26.608 38.7209 26.1124 38.7209 25.4856L38.7195 24.305L30.1668 24.3166L30.1682 25.4958C30.1682 26.1241 29.6945 26.6197 29.061 26.6197C28.4274 26.6211 27.9508 26.127 27.9508 25.4988L27.9494 24.3764C25.1417 24.6577 23.5881 26.3077 23.5924 29.4693L23.5938 29.9226ZM39.2249 36.5472V36.5632C39.2393 37.2337 39.7864 37.7424 40.4502 37.7278C41.0982 37.7118 41.6151 37.1564 41.6007 36.4859C41.5704 35.8446 41.0506 35.3213 40.4041 35.3228C39.7418 35.3373 39.2235 35.8767 39.2249 36.5472ZM40.4142 43.0917C39.7519 43.0771 39.2177 42.5247 39.2163 41.8542C39.2019 41.1837 39.7332 40.6283 40.3955 40.6123H40.4099C41.0866 40.6123 41.6352 41.1647 41.6352 41.8498C41.6367 42.5349 41.0895 43.0902 40.4142 43.0917ZM33.2927 36.571C33.3215 37.2415 33.8701 37.7648 34.5324 37.7356C35.1803 37.705 35.6972 37.1511 35.6684 36.4806C35.6526 35.8247 35.1198 35.3145 34.4719 35.316C33.8096 35.3451 33.2912 35.9005 33.2927 36.571ZM34.5381 43.0261C33.8758 43.0553 33.3286 42.532 33.2984 41.8615C33.2984 41.191 33.8153 40.6371 34.4777 40.6065C35.1256 40.6051 35.6598 41.1152 35.6742 41.7697C35.7044 42.4416 35.1861 42.9955 34.5381 43.0261ZM27.3604 36.6221C27.3892 37.2926 27.9378 37.8173 28.6002 37.7867C29.2481 37.7575 29.765 37.2022 29.7348 36.5317C29.7204 35.8758 29.1876 35.3656 28.5382 35.3671C27.8759 35.3962 27.359 35.9516 27.3604 36.6221ZM28.606 43.0338C27.9437 43.0644 27.3965 42.5397 27.3663 41.8692C27.3649 41.1987 27.8832 40.6434 28.5455 40.6142C29.1935 40.6127 29.7277 41.1229 29.7421 41.7788C29.7723 42.4493 29.2554 43.0047 28.606 43.0338Z" fill="#1D192E"></path></svg>