<svg xmlns="http://www.w3.org/2000/svg" width="69" height="69" viewBox="0 0 69 69" fill="none"><circle cx="34.5" cy="34.5" r="34.5" fill="#1D192E" fill-opacity="0.1"></circle><path fill-rule="evenodd" clip-rule="evenodd" d="M41.7033 21.375C43.6589 21.375 45.5402 22.1479 46.9241 23.5348C48.3095 24.9188 49.0839 26.7854 49.0839 28.7396V40.2604C49.0839 44.3292 45.7735 47.625 41.7033 47.625H27.2964C23.2262 47.625 19.9172 44.3292 19.9172 40.2604V28.7396C19.9172 24.6708 23.2116 21.375 27.2964 21.375H41.7033ZM44.0235 30.9127L44.1401 30.796C44.4887 30.3731 44.4887 29.7606 44.1241 29.3377C43.9214 29.1204 43.6428 28.9877 43.3526 28.9585C43.0464 28.9424 42.7547 29.046 42.5345 29.2502L35.9589 34.5001C35.113 35.2016 33.9012 35.2016 33.0422 34.5001L26.4797 29.2502C26.0262 28.9147 25.3991 28.9585 25.0214 29.3522C24.6276 29.746 24.5839 30.3731 24.9178 30.8106L25.1089 31.0002L31.7443 36.1772C32.561 36.8189 33.5512 37.1689 34.588 37.1689C35.622 37.1689 36.6297 36.8189 37.4449 36.1772L44.0235 30.9127Z" fill="#1D192E"></path></svg>