<svg xmlns="http://www.w3.org/2000/svg" width="69" height="69" viewBox="0 0 69 69" fill="none"><circle cx="34.5" cy="34.5" r="34.5" fill="#1D192E" fill-opacity="0.1"></circle><path fill-rule="evenodd" clip-rule="evenodd" d="M49.6809 32.8086C49.4778 33.0059 49.2021 33.1186 48.912 33.1186C47.8385 33.1186 46.9681 33.9642 46.9681 34.993C46.9681 36.0288 47.8283 36.8701 48.8917 36.8814C49.4908 36.887 50 37.2929 50 37.8749V41.4897C50 44.5324 47.4613 47 44.3279 47H39.5986C39.1098 47 38.7137 46.6153 38.7137 46.1403V43.0963C38.7137 42.5044 38.235 42.0393 37.6257 42.0393C37.0309 42.0393 36.5377 42.5044 36.5377 43.0963V46.1403C36.5377 46.6153 36.1417 47 35.6543 47H25.6721C22.5532 47 20 44.5338 20 41.4897V37.8749C20 37.2929 20.5092 36.887 21.1083 36.8814C22.1731 36.8701 23.0319 36.0288 23.0319 34.993C23.0319 33.9924 22.1905 33.2314 21.088 33.2314C20.7979 33.2314 20.5222 33.1186 20.3191 32.9213C20.1161 32.724 20 32.4563 20 32.1744V28.5244C20 25.486 22.559 23 25.6867 23H35.6543C36.1417 23 36.5377 23.3847 36.5377 23.8597V27.4674C36.5377 28.0452 37.0309 28.5244 37.6257 28.5244C38.235 28.5244 38.7137 28.0452 38.7137 27.4674V23.8597C38.7137 23.3847 39.1098 23 39.5986 23H44.3279C47.4613 23 50 25.4662 50 28.5103V32.0617C50 32.3435 49.8839 32.6113 49.6809 32.8086ZM37.6257 39.3055C38.235 39.3055 38.7137 38.8263 38.7137 38.2485V32.6114C38.7137 32.0336 38.235 31.5544 37.6257 31.5544C37.031 31.5544 36.5377 32.0336 36.5377 32.6114V38.2485C36.5377 38.8263 37.031 39.3055 37.6257 39.3055Z" fill="black"></path></svg>