<svg xmlns="http://www.w3.org/2000/svg" width="69" height="69" viewBox="0 0 69 69" fill="none"><circle cx="34.5" cy="34.5" r="34.5" fill="#1D192E" fill-opacity="0.1"></circle><path d="M35.004 19H34.996C26.174 19 19 26.176 19 35C19 38.5 20.128 41.744 22.046 44.378L20.052 50.322L26.202 48.356C28.732 50.032 31.75 51 35.004 51C43.826 51 51 43.822 51 35C51 26.178 43.826 19 35.004 19ZM44.314 41.594C43.928 42.684 42.396 43.588 41.174 43.852C40.338 44.03 39.246 44.172 35.57 42.648C30.868 40.7 27.84 35.922 27.604 35.612C27.378 35.302 25.704 33.082 25.704 30.786C25.704 28.49 26.87 27.372 27.34 26.892C27.726 26.498 28.364 26.318 28.976 26.318C29.174 26.318 29.352 26.328 29.512 26.336C29.982 26.356 30.218 26.384 30.528 27.126C30.914 28.056 31.854 30.352 31.966 30.588C32.08 30.824 32.194 31.144 32.034 31.454C31.884 31.774 31.752 31.916 31.516 32.188C31.28 32.46 31.056 32.668 30.82 32.96C30.604 33.214 30.36 33.486 30.632 33.956C30.904 34.416 31.844 35.95 33.228 37.182C35.014 38.772 36.462 39.28 36.98 39.496C37.366 39.656 37.826 39.618 38.108 39.318C38.466 38.932 38.908 38.292 39.358 37.662C39.678 37.21 40.082 37.154 40.506 37.314C40.938 37.464 43.224 38.594 43.694 38.828C44.164 39.064 44.474 39.176 44.588 39.374C44.7 39.572 44.7 40.502 44.314 41.594Z" fill="#1D192E"></path></svg>