<svg xmlns="http://www.w3.org/2000/svg" width="69" height="69" viewBox="0 0 69 69" fill="none"><circle cx="34.5" cy="34.5" r="34.5" fill="#1D192E" fill-opacity="0.1"></circle><path fill-rule="evenodd" clip-rule="evenodd" d="M34.5001 49.0827C26.4501 49.0827 19.9167 42.5639 19.9167 34.4993C19.9167 26.4493 26.4501 19.916 34.5001 19.916C42.5647 19.916 49.0834 26.4493 49.0834 34.4993C49.0834 42.5639 42.5647 49.0827 34.5001 49.0827ZM39.1521 39.9095C39.3271 40.0116 39.5167 40.0699 39.7208 40.0699C40.0854 40.0699 40.45 39.8803 40.6542 39.5303C40.9604 39.0199 40.8 38.3491 40.275 38.0282L35.0833 34.9366V28.1991C35.0833 27.5866 34.5875 27.1053 33.9896 27.1053C33.3917 27.1053 32.8958 27.5866 32.8958 28.1991V35.5637C32.8958 35.9428 33.1 36.2928 33.4354 36.497L39.1521 39.9095Z" fill="#1D192E"></path></svg>