<svg xmlns="http://www.w3.org/2000/svg" width="69" height="69" viewBox="0 0 69 69" fill="none"><circle cx="34.5" cy="34.5" r="34.5" fill="#1D192E" fill-opacity="0.1"></circle><g clip-path="url(#clip0)"><path d="M35.0002 20.3333C33.2537 20.3333 31.8335 18.9131 31.8335 17.1667C31.8335 15.4202 33.2537 14 35.0002 14C36.7466 14 38.1668 15.4202 38.1668 17.1667C38.1668 18.9131 36.7466 20.3333 35.0002 20.3333Z" fill="#1D192E"></path><path d="M40.1457 26.668H29.854C29.1985 26.668 28.6665 26.136 28.6665 25.4805C28.6665 23.5156 30.2657 21.918 32.229 21.918H37.7707C39.734 21.918 41.3332 23.5156 41.3332 25.4805C41.3332 26.136 40.8012 26.668 40.1457 26.668Z" fill="#1D192E"></path><path d="M47.6665 45.668C48.9782 45.668 50.0415 44.6046 50.0415 43.293C50.0415 41.9813 48.9782 40.918 47.6665 40.918C46.3548 40.918 45.2915 41.9813 45.2915 43.293C45.2915 44.6046 46.3548 45.668 47.6665 45.668Z" fill="#1D192E"></path><path d="M51.229 52H44.104C43.4485 52 42.9165 51.468 42.9165 50.8125C42.9165 48.8476 44.5157 47.25 46.479 47.25H48.854C50.8173 47.25 52.4165 48.8476 52.4165 50.8125C52.4165 51.468 51.8845 52 51.229 52Z" fill="#1D192E"></path><path d="M35 45.668C36.3117 45.668 37.375 44.6046 37.375 43.293C37.375 41.9813 36.3117 40.918 35 40.918C33.6883 40.918 32.625 41.9813 32.625 43.293C32.625 44.6046 33.6883 45.668 35 45.668Z" fill="#1D192E"></path><path d="M38.5625 52H31.4375C30.782 52 30.25 51.468 30.25 50.8125C30.25 48.8476 31.8492 47.25 33.8125 47.25H36.1875C38.1508 47.25 39.75 48.8476 39.75 50.8125C39.75 51.468 39.218 52 38.5625 52Z" fill="#1D192E"></path><path d="M22.3335 45.668C23.6452 45.668 24.7085 44.6046 24.7085 43.293C24.7085 41.9813 23.6452 40.918 22.3335 40.918C21.0218 40.918 19.9585 41.9813 19.9585 43.293C19.9585 44.6046 21.0218 45.668 22.3335 45.668Z" fill="#1D192E"></path><path d="M25.896 52H18.771C18.1155 52 17.5835 51.468 17.5835 50.8125C17.5835 48.8476 19.1827 47.25 21.146 47.25H23.521C25.4843 47.25 27.0835 48.8476 27.0835 50.8125C27.0835 51.468 26.5515 52 25.896 52Z" fill="#1D192E"></path><path d="M44.4998 28.25H25.4998C24.6243 28.25 23.9165 28.9593 23.9165 29.8333C23.9165 30.7073 24.6243 31.4167 25.4998 31.4167H26.4578L27.4948 41.0908C27.6041 42.1786 28.4496 42.5 29.5389 42.5C29.9268 39.821 32.2163 37.75 34.9998 37.75C37.7833 37.75 40.0728 39.821 40.4608 42.5C41.5501 42.5 42.3956 42.1786 42.5048 41.0908L43.5419 31.4167H44.4998C45.3754 31.4167 46.0832 30.7073 46.0832 29.8333C46.0832 28.9593 45.3754 28.25 44.4998 28.25Z" fill="#1D192E"></path></g><defs><clipPath id="clip0"><rect width="38" height="38" fill="white" transform="translate(16 14)"></rect></clipPath></defs></svg>