<svg xmlns="http://www.w3.org/2000/svg" width="69" height="69" viewBox="0 0 69 69" fill="none"><circle cx="34.5" cy="34.5" r="34.5" fill="#1D192E" fill-opacity="0.1"></circle><path fill-rule="evenodd" clip-rule="evenodd" d="M34.5001 49.0837C26.4501 49.0837 19.9167 42.5649 19.9167 34.5003C19.9167 26.4503 26.4501 19.917 34.5001 19.917C42.5647 19.917 49.0834 26.4503 49.0834 34.5003C49.0834 42.5649 42.5647 49.0837 34.5001 49.0837ZM39.1521 39.9105C39.3271 40.0125 39.5167 40.0709 39.7208 40.0709C40.0854 40.0709 40.45 39.8813 40.6542 39.5313C40.9604 39.0209 40.8 38.35 40.275 38.0292L35.0833 34.9375V28.2C35.0833 27.5875 34.5875 27.1063 33.9896 27.1063C33.3917 27.1063 32.8958 27.5875 32.8958 28.2V35.5646C32.8958 35.9438 33.1 36.2938 33.4354 36.498L39.1521 39.9105Z" fill="#1D192E"></path></svg>